<?xml version="1.0" standalone="no"?><!DOCTYPE svg PUBLIC "-//W3C//DTD SVG 1.1//EN" "http://www.w3.org/Graphics/SVG/1.1/DTD/svg11.dtd"><svg t="1719657462265" class="icon" viewBox="0 0 1024 1024" version="1.1" xmlns="http://www.w3.org/2000/svg" p-id="5267" xmlns:xlink="http://www.w3.org/1999/xlink" width="200" height="200"><path d="M530.9293681 431.99298667c12.69089853-1.39850077 32.17241993-2.81598184 58.96997255-2.81598184 44.75202505 0 80.92755642 7.8957922 103.33549032 24.51560657 20.13547797 15.48790009 33.52519552 40.55565997 29.81627827 76.89597458-3.43197786 33.81076231-20.74198383 57.48864879-45.99437 72.12071127C653.95861373 616.52261991 624.87825229 622.43066023 581.11147578 622.43066023c-25.78555916 0-50.402969-1.41748106-69.11147578-4.22397275l18.9293681-186.21370082z m36.98564379 149.2013121c4.29730562 0.85583762 9.97499448 1.70218509 21.16558896 1.7021851 44.76151521 0 76.3265665-22.32511089 79.51007536-53.69690853 4.60098993-45.34127616-23.40180983-61.20619343-70.57468202-60.93011679-6.10129397 0-14.59496468 0-19.09501409 0.83685734L567.90552174 581.20378891h0.0086274z m192.82056016-142.09665206c181.99921821-34.39915066 197.70797962 27.4144114 192.08550608 82.12331343L942.21024461 622.43066023h-57.75523531l9.67131017-92.30191443c2.08955515-20.32786888 15.10225553-60.09239669-47.74228028-58.59209265-21.7272324 0.52454563-32.53131957 3.50617346-32.53131957 3.50617347s-1.88594862 24.56133176-4.16875743 42.71768524L798.70560163 622.43066023h-56.64143855l11.23631967-103.16035419" fill="#231916" p-id="5268"></path><path d="M265.80433314 616.11799508c-10.67553898 3.74515232-32.81688637 6.31266516-63.76507889 6.31266515C113.06923991 622.43066023 65.05951037 580.09861956 70.72857184 524.15600002c6.80960313-66.67251112 77.93643846-104.18183779 155.82628898-104.18183779 30.17517791 0 47.92690654 2.46657234 64.58381871 6.58960456l-5.35588702 44.91767104c-11.06118355-3.78225011-37.00289858-7.25218852-58.00370429-7.25218852-45.84684153 0-84.76415912 13.84093033-89.22797347 57.59907945-3.97550376 39.12955153 23.3465945 57.8380583 74.89959531 57.8380583 17.94498229 0 44.41124294-2.60461066 56.64143856-6.35839035l-4.30679575 42.79188083 0.01898028 0.01725479z" fill="#C92027" p-id="5269"></path><path d="M305.55937083 570.68440578c16.63793189 5.83470746 51.32264935 11.65043465 79.37203705 11.65043465 30.2209031 0 47.04346126-8.05194806 48.39623685-20.53061266 1.22336465-11.39247553-11.15349668-12.92987738-45.28606084-20.71437619-47.16338205-11.12675175-77.25573697-28.3349545-74.3103442-55.82356149C317.17270769 453.32508436 361.6115583 429.17700483 429.80249098 429.17700483c33.26723639 0 65.49487164 2.25433839 82.19750902 7.51877503l-5.74239433 40.26060304c-10.84032224-3.62523151-52.34413295-8.65931669-80.41163819-8.65931669-28.46350268 0-43.19736842 8.60410136-44.21885202 18.04592281-1.28807011 11.94549158 13.50963835 12.49764488 50.49441939 21.95758387 50.06218689 12.2120781 71.95506527 29.41079069 69.09335825 56.07116773C497.85538535 595.77977332 457.87085896 622.43066023 378.02949161 622.43066023c-33.23962873 0-61.89638506-5.83470746-77.68796948-11.66855218l5.21784869-40.07770228z" fill="#231916" p-id="5270"></path></svg>